<svg width="86" height="24" viewBox="0 0 86 24" fill="none" xmlns="http://www.w3.org/2000/svg">
<path fill-rule="evenodd" clip-rule="evenodd" d="M56.204 0.558105H55.0851L54.0553 1.57401H54.8775L56.204 0.558105ZM32.963 6.46144C33.27 6.48165 33.5767 6.41749 33.8498 6.27591L33.84 6.27427C33.9284 6.22642 34.0024 6.15563 34.054 6.06934C34.1056 5.98305 34.1331 5.88445 34.1334 5.78389C34.135 5.71445 34.1211 5.64552 34.0929 5.58206C34.0646 5.51861 34.0226 5.46221 33.97 5.41692C33.8484 5.31411 33.7071 5.23734 33.5548 5.19135C33.3875 5.13686 33.1592 5.07502 32.8699 5.00582C32.5357 4.93272 32.2065 4.83854 31.8842 4.72385C31.6356 4.63177 31.4134 4.48025 31.2369 4.28251C31.0475 4.05585 30.9512 3.76584 30.9672 3.47093C30.9649 3.19182 31.0485 2.91876 31.2067 2.68877C31.3887 2.43632 31.6399 2.24189 31.93 2.12892C32.3064 1.98048 32.709 1.90986 33.1134 1.92132C33.4369 1.92111 33.7592 1.96092 34.0729 2.03983C34.3624 2.10729 34.6386 2.22247 34.8902 2.38065L34.578 3.1293C34.3484 2.99754 34.1028 2.89564 33.8474 2.82608C33.6079 2.75856 33.3605 2.72338 33.1118 2.72146C32.8086 2.70049 32.5058 2.76747 32.2397 2.91435C32.1518 2.96761 32.0792 3.04288 32.0292 3.13275C31.9791 3.22261 31.9534 3.32396 31.9545 3.42679C31.9525 3.49571 31.9661 3.56418 31.9945 3.62705C32.0228 3.68991 32.065 3.74552 32.1179 3.78968C32.24 3.89106 32.3812 3.96693 32.5331 4.0128C32.7007 4.06756 32.9295 4.12886 33.218 4.19833C33.5491 4.26843 33.8748 4.36128 34.1931 4.47621C34.4433 4.56911 34.6675 4.72075 34.8469 4.91837C35.0358 5.14082 35.1326 5.42706 35.1174 5.71851C35.1202 5.99668 35.0365 6.26884 34.878 6.4974C34.694 6.74897 34.4415 6.94221 34.1506 7.05398C33.773 7.20227 33.3694 7.27287 32.9639 7.26158C32.5605 7.26241 32.1591 7.20488 31.7722 7.09076C31.4412 7.00369 31.1316 6.84958 30.8626 6.63797L31.205 5.88933C31.4481 6.06903 31.7193 6.20712 32.0076 6.29798C32.3151 6.404 32.6378 6.45921 32.963 6.46144ZM27.4667 5.95317C27.2191 6.35 26.8621 6.66676 26.4385 6.86528V6.86119C25.9652 7.08355 25.447 7.19401 24.9241 7.18402H22.5948V1.99252H24.9241C25.4473 1.98393 25.9655 2.09579 26.4385 2.31944C26.8621 2.51792 27.2192 2.83469 27.4667 3.23155C27.7151 3.64133 27.8418 4.11329 27.832 4.59236C27.8417 5.07142 27.715 5.54337 27.4667 5.95317ZM23.5837 2.81228V6.37081L24.8799 6.37244C25.236 6.37982 25.589 6.30486 25.9114 6.15341C26.1963 6.01823 26.4347 5.80147 26.5963 5.53062C26.7599 5.24546 26.8427 4.92107 26.8357 4.59236C26.8424 4.26347 26.7591 3.93901 26.5946 3.6541C26.4331 3.38304 26.1947 3.16601 25.9097 3.0305C25.5873 2.87944 25.2343 2.80476 24.8783 2.81228H23.5837ZM54.4893 11.1601V18.3376H54.4901C54.4901 18.8329 54.5792 18.9089 55.0091 18.9465C55.1162 18.9588 55.2233 18.968 55.3304 18.9772L55.3304 18.9772L55.3304 18.9772L55.3305 18.9772L55.3305 18.9772L55.3305 18.9772L55.3306 18.9772L55.3306 18.9772L55.3306 18.9772L55.3307 18.9772L55.3307 18.9772L55.3307 18.9772L55.3308 18.9772L55.3308 18.9772L55.3308 18.9772L55.3309 18.9772L55.3309 18.9773L55.3309 18.9773L55.331 18.9773L55.331 18.9773L55.331 18.9773C55.4451 18.987 55.559 18.9968 55.6728 19.0103L55.1914 19.2882H52.8866L52.9308 19.2322L52.9676 19.1858C53.1954 18.8985 53.238 18.8449 53.238 18.6163V10.7858H52.2417L53.2225 10.3297H55.0835C54.6789 10.5577 54.549 10.6337 54.4967 11.0784C54.4893 11.1045 54.4893 11.1323 54.4893 11.1601ZM28.2588 17.1814L30.2203 17.08V19.1233C29.6982 19.3462 29.1344 19.4544 28.5669 19.4404C27.9574 19.4498 27.3524 19.3363 26.7878 19.1067C26.2231 18.8772 25.7105 18.5362 25.2805 18.1043C24.8505 17.6724 24.5118 17.1583 24.2848 16.5926C24.0577 16.027 23.9469 15.4214 23.9589 14.812C23.9315 14.3244 24.0051 13.8363 24.1752 13.3785C24.3453 12.9206 24.6082 12.5029 24.9474 12.1514C25.2866 11.8 25.6948 11.5225 26.1464 11.3364C26.5979 11.1502 27.0831 11.0594 27.5714 11.0696C28.0918 11.065 28.6075 11.1684 29.0858 11.3734C29.5641 11.5784 29.9947 11.8804 30.3502 12.2604L30.0233 12.768L30.4785 12.6674L31.559 11.6662C31.0405 11.3003 30.4585 11.0337 29.8427 10.88C29.1936 10.7044 28.5242 10.6149 27.8517 10.6136C24.531 10.6136 22.5916 12.8955 22.5916 15.3539C22.5916 17.3702 23.9589 19.9455 27.5518 19.9455C28.2722 19.9285 28.9903 19.8564 29.6997 19.7297L31.5615 19.3121V17.7649C31.5615 17.6383 31.5737 17.2697 31.5876 17.1552C31.5939 17.1141 31.6088 17.0749 31.6314 17.0399C31.6539 17.005 31.6835 16.9752 31.7184 16.9525L32.0559 16.6354H29.2992L28.2588 17.1814ZM73.0437 11.0058H72.1038V19.5817H73.0437V11.0058ZM68.2934 13.4308C67.914 13.4234 67.5375 13.4987 67.1901 13.6514C66.8517 13.8135 66.5611 14.0604 66.3466 14.3682H66.3017L66.1725 13.5411H65.4083V22.2928H66.3466V19.8065C66.3452 19.4714 66.3225 19.1368 66.2788 18.8045H66.3466C66.5632 19.0978 66.8533 19.3287 67.1876 19.4739C67.5371 19.6225 67.9137 19.6968 68.2934 19.6921C68.651 19.71 69.0079 19.645 69.3362 19.5022C69.6646 19.3595 69.9555 19.1428 70.1863 18.8691C70.6291 18.181 70.8655 17.3804 70.8673 16.5622C70.8692 15.7439 70.6366 14.9423 70.1969 14.2522C69.9646 13.9778 69.6717 13.7612 69.3414 13.6194C69.0111 13.4776 68.6523 13.4144 68.2934 13.4349V13.4308ZM69.4376 18.2962C69.2975 18.4987 69.1088 18.6629 68.8887 18.7736C68.6687 18.8842 68.4244 18.9379 68.1782 18.9296C67.9187 18.9528 67.6573 18.9154 67.4147 18.8202C67.1721 18.725 66.9551 18.5747 66.7806 18.3812C66.442 17.8371 66.2889 17.1979 66.3441 16.5594V16.3551C66.3027 15.7767 66.4564 15.2012 66.7806 14.7205C66.9563 14.537 67.1713 14.3956 67.4093 14.3069C67.6473 14.2182 67.9024 14.1844 68.1553 14.208C68.402 14.1964 68.6479 14.2452 68.8714 14.3504C69.0949 14.4555 69.2893 14.6137 69.4376 14.8112C69.7727 15.3247 69.9324 15.9329 69.8929 16.5447C69.9277 17.1604 69.7684 17.7716 69.4376 18.2921V18.2962ZM74.8596 13.9602C75.5082 13.6227 76.2281 13.4451 76.9592 13.442H76.96C77.5482 13.3945 78.1333 13.5653 78.6036 13.9217C78.7971 14.1251 78.9448 14.3675 79.037 14.6326C79.1292 14.8978 79.1637 15.1795 79.1381 15.4591V19.5791H78.4418L78.2546 18.7193H78.2097C77.9658 19.0446 77.6489 19.308 77.2845 19.4884C76.9185 19.6338 76.5266 19.7025 76.1329 19.6903C75.6102 19.7207 75.0947 19.5555 74.6871 19.2268C74.508 19.0593 74.3682 18.8542 74.2777 18.6263C74.1871 18.3984 74.148 18.1533 74.1632 17.9085C74.1638 16.6891 75.1652 16.0497 77.1676 15.9903L78.2203 15.9576V15.5849C78.2514 15.2079 78.1393 14.8329 77.9065 14.5347C77.7718 14.4116 77.6129 14.3179 77.4399 14.2596C77.267 14.2014 77.0837 14.1798 76.902 14.1964C76.2906 14.2206 75.6919 14.3785 75.1481 14.6589L74.8596 13.9602ZM78.0888 17.8642C78.1751 17.6388 78.2127 17.3976 78.1991 17.1566V16.6066L77.2592 16.645C76.7013 16.627 76.1474 16.7436 75.6442 16.985C75.484 17.0801 75.3531 17.2176 75.2659 17.3822C75.1786 17.5469 75.1384 17.7324 75.1497 17.9183C75.1403 18.0594 75.1631 18.2007 75.2165 18.3316C75.2699 18.4624 75.3524 18.5794 75.4578 18.6735C75.7055 18.8599 76.0115 18.9517 76.3209 18.9326C76.8234 18.9614 77.3173 18.7935 77.6981 18.4643C77.8693 18.2941 78.0024 18.0896 78.0888 17.8642ZM84.4916 13.5407C83.6242 15.8782 83.1123 17.2733 82.9559 17.7261C82.7998 18.1805 82.6968 18.5009 82.6477 18.6889H82.6028C82.4573 18.109 82.2719 17.5399 82.0478 16.9857L80.6903 13.5407H79.6834L82.1835 19.6141L81.8386 20.4739C81.758 20.7784 81.579 21.0476 81.3295 21.2398C81.08 21.432 80.7739 21.5362 80.459 21.5364C80.2252 21.5389 79.9918 21.5167 79.7627 21.4702V22.2058C80.0414 22.2684 80.3262 22.2999 80.6118 22.2997C81.0812 22.3144 81.5407 22.1634 81.9097 21.8731C82.3364 21.4773 82.6548 20.9791 82.8349 20.4257L85.5001 13.5481L84.4916 13.5407ZM49.8599 13.6471H52.5309L51.7013 14.0991H50.8979C51.1946 14.2927 51.4355 14.5605 51.5966 14.876C51.7577 15.1914 51.8335 15.5436 51.8164 15.8974C51.7993 16.2513 51.6899 16.5945 51.4991 16.8929C51.3083 17.1914 51.0427 17.4347 50.7287 17.5988C50.6282 17.6708 50.5439 17.7632 50.4814 17.8699C50.4189 17.9767 50.3795 18.0954 50.3658 18.2183C50.3741 18.3293 50.409 18.4367 50.4676 18.5313C50.5262 18.6259 50.6068 18.705 50.7026 18.7618L51.1701 19.1141C51.4836 19.2962 51.7472 19.5533 51.9371 19.8622C52.1271 20.1711 52.2376 20.5223 52.2587 20.8843C52.2587 22.0719 51.0777 23.2717 48.8473 23.2717C46.9675 23.2717 46.0595 22.4004 46.0595 21.4646C46.0734 21.142 46.1734 20.8289 46.349 20.5579C46.5246 20.2869 46.7694 20.0677 47.0582 19.9232C47.8294 19.5456 48.676 19.3469 49.5346 19.3421C49.303 19.114 49.1645 18.8077 49.1464 18.4831C49.1517 18.312 49.1959 18.1443 49.2756 17.9927C49.1325 18.0066 48.9903 18.0189 48.8604 18.0189C48.5875 18.0359 48.3139 17.9975 48.0562 17.906C47.7985 17.8145 47.562 17.6718 47.3609 17.4865C47.1599 17.3011 46.9984 17.077 46.8863 16.8276C46.7741 16.5782 46.7136 16.3087 46.7084 16.0353C46.7159 15.71 46.794 15.3903 46.9372 15.0982C47.0804 14.8061 47.2854 14.5485 47.538 14.3435C48.208 13.8496 49.0287 13.6035 49.8599 13.6471ZM49.4807 22.7445C50.7246 22.7445 51.3866 22.1626 51.3866 21.3796L51.3858 21.3804C51.3858 20.7348 50.9584 20.3956 49.9719 19.7123C49.8731 19.7016 49.7737 19.6975 49.6744 19.7001C49.2136 19.7079 48.7559 19.7761 48.3128 19.9027C48.0116 19.9703 47.7403 20.1334 47.5394 20.3677C47.3385 20.6021 47.2187 20.8951 47.198 21.2031C47.198 22.0988 48.0913 22.7445 49.4807 22.7445ZM49.466 17.6658C49.7932 17.6589 50.1067 17.5331 50.3479 17.3119L50.3454 17.3111C50.4587 17.187 50.5459 17.0415 50.6021 16.8832C50.6582 16.7248 50.6821 16.5569 50.6723 16.3892C50.6723 15.4803 50.1133 14.0648 49.0377 14.0648C48.8656 14.0666 48.6958 14.1047 48.5393 14.1765C48.3829 14.2483 48.2433 14.3522 48.1297 14.4816C47.9279 14.7501 47.8269 15.0811 47.8445 15.4166C47.8445 16.2633 48.3504 17.6658 49.466 17.6658ZM42.9269 13.4672C42.5044 13.4432 42.0814 13.504 41.6828 13.6459C41.2841 13.7879 40.9179 14.0081 40.6057 14.2937C40.2935 14.5793 40.0415 14.9244 39.8646 15.3088C39.6878 15.6932 39.5896 16.1092 39.5759 16.5321C39.5807 16.9372 39.6671 17.3372 39.8299 17.7081C39.9926 18.0791 40.2284 18.4136 40.5232 18.6914C40.8181 18.9693 41.1658 19.1849 41.5458 19.3255C41.9257 19.4661 42.3301 19.5286 42.7348 19.5095C43.1539 19.5316 43.5731 19.4691 43.9675 19.3257C44.3619 19.1824 44.7233 18.961 45.0303 18.6749C45.3373 18.3888 45.5836 18.0438 45.7544 17.6605C45.9252 17.2772 46.017 16.8634 46.0244 16.4438C46.0231 16.0433 45.9412 15.6472 45.7837 15.2789C45.6262 14.9107 45.3963 14.5778 45.1077 14.3002C44.819 14.0225 44.4775 13.8057 44.1035 13.6626C43.7294 13.5195 43.3304 13.4531 42.9301 13.4672H42.9269ZM44.3531 18.4879C44.1966 18.6885 43.9963 18.8507 43.7675 18.962C43.5387 19.0733 43.2875 19.1309 43.0331 19.1303C41.4663 19.1303 40.8305 17.0748 40.8305 15.8267C40.8062 15.5416 40.8473 15.2547 40.9507 14.9878C41.0541 14.721 41.217 14.4813 41.4271 14.287C41.7535 14.0126 42.1654 13.8608 42.5918 13.8579C44.1978 13.8579 44.7413 15.9771 44.7413 17.087C44.7712 17.5843 44.6343 18.0773 44.3522 18.4879H44.3531ZM34.6637 13.6459C35.0623 13.504 35.4853 13.4432 35.9078 13.4672H35.9102C36.3105 13.453 36.7096 13.5193 37.0837 13.6624C37.4578 13.8054 37.7994 14.0223 38.088 14.2999C38.3767 14.5776 38.6066 14.9105 38.764 15.2788C38.9215 15.6471 39.0033 16.0433 39.0045 16.4438C38.9972 16.8634 38.9055 17.2771 38.7348 17.6604C38.5641 18.0438 38.3179 18.3888 38.011 18.6749C37.704 18.961 37.3426 19.1823 36.9483 19.3257C36.5539 19.4691 36.1347 19.5316 35.7157 19.5095C35.311 19.5288 34.9066 19.4663 34.5266 19.3257C34.1465 19.1852 33.7987 18.9696 33.5039 18.6917C33.2091 18.4138 32.9733 18.0793 32.8105 17.7083C32.6478 17.3372 32.5615 16.9372 32.5568 16.5321C32.5705 16.1092 32.6687 15.6932 32.8456 15.3088C33.0224 14.9244 33.2744 14.5793 33.5866 14.2937C33.8988 14.0081 34.265 13.7879 34.6637 13.6459ZM36.7487 18.9618C36.9776 18.8505 37.178 18.6884 37.3348 18.4879C37.6162 18.077 37.7528 17.5841 37.723 17.087C37.723 15.9771 37.1787 13.8579 35.5735 13.8579C35.1469 13.8608 34.7347 14.0126 34.408 14.287C34.1981 14.4813 34.0353 14.7211 33.932 14.9879C33.8288 15.2548 33.7878 15.5417 33.8122 15.8267C33.8122 17.0748 34.4464 19.1303 36.014 19.1303C36.2685 19.1308 36.5198 19.0732 36.7487 18.9618ZM56.7539 16.3428L57.7493 16.2676L60.7856 15.0711C60.6546 14.5556 60.3315 14.1097 59.8825 13.8247C59.479 13.5876 59.0183 13.4655 58.5503 13.4716C58.1635 13.4629 57.7788 13.5317 57.419 13.6742C57.0592 13.8166 56.7317 14.0297 56.4556 14.3008C56.1796 14.572 55.9607 14.8957 55.8119 15.2529C55.6631 15.6101 55.5874 15.9934 55.5892 16.3804C55.5805 16.8965 55.6957 17.4072 55.9251 17.8697C56.1544 18.3321 56.4913 18.7328 56.9075 19.0382C57.4113 19.3835 58.0137 19.5556 58.6238 19.5286C59.0544 19.5371 59.482 19.4556 59.8792 19.2892C59.9777 19.2456 60.0758 19.1898 60.1738 19.1341C60.2173 19.1094 60.2608 19.0847 60.3042 19.0611L60.9899 18.4326C60.5076 18.705 59.9662 18.8559 59.4126 18.8723C58.7404 18.8341 58.1038 18.5584 57.6161 18.0943C57.1283 17.6303 56.8213 17.0081 56.7498 16.3387L56.7539 16.3428ZM56.6975 15.6334C56.6723 15.4194 56.6915 15.2026 56.7539 14.9964C56.8162 14.7901 56.9204 14.599 57.0599 14.4348C57.1994 14.2706 57.3712 14.137 57.5646 14.0421C57.758 13.9473 57.9689 13.8933 58.1841 13.8835C58.4926 13.8778 58.7926 13.9845 59.0282 14.1838C59.2637 14.3831 59.4186 14.6613 59.464 14.9664C59.464 15.1422 59.3349 15.2182 59.0897 15.3064L56.7359 16.3019C56.7314 16.2242 56.7254 16.1464 56.7194 16.0692C56.708 15.9207 56.6966 15.7742 56.6966 15.6334H56.6975ZM61.4534 13.5578H61.1706L61.1714 13.472H61.8391V13.5578H61.5572V14.389H61.4534V13.5578ZM62.4122 14.2125L62.1727 13.472H62.0092V14.389H62.104V13.5497L62.3689 14.3882H62.4506L62.7129 13.5497H62.7178V14.3882H62.811V13.472H62.6475L62.4122 14.2125ZM29.8721 1.99644H28.8824V7.18713H29.8721V1.99644ZM40.2861 4.82529C40.4724 4.53268 40.5677 4.19134 40.5599 3.84453C40.574 3.49688 40.4793 3.15349 40.2888 2.86233C40.0983 2.57118 39.8216 2.3468 39.4974 2.22055C39.1148 2.06413 38.7042 1.98818 38.291 1.99743H36.0982V7.18893H37.088V5.69H38.291C38.7041 5.69939 39.1147 5.62372 39.4974 5.46769C39.8181 5.33715 40.0924 5.11373 40.2852 4.82611L40.2861 4.82529ZM39.2285 4.6038C38.9407 4.80011 38.5953 4.89395 38.2477 4.87024H37.0904V2.81228H38.2477C38.5953 2.78818 38.9408 2.88206 39.2285 3.07872C39.3405 3.17056 39.4293 3.28758 39.4875 3.42024C39.5457 3.55289 39.5718 3.69744 39.5636 3.84208C39.5719 3.98685 39.5458 4.13153 39.4876 4.26433C39.4294 4.39713 39.3406 4.51429 39.2285 4.60626V4.6038ZM44.1177 7.26294C43.6072 7.26294 43.1037 7.14469 42.6466 6.91748L42.6384 6.92075C42.2115 6.70073 41.8534 6.36741 41.6034 5.95732C41.3534 5.54723 41.2211 5.07622 41.2211 4.59593C41.2211 4.11564 41.3534 3.64463 41.6034 3.23454C41.8534 2.82446 42.2115 2.49113 42.6384 2.27112C43.0955 2.0439 43.5991 1.92566 44.1096 1.92566C44.62 1.92566 45.1236 2.0439 45.5807 2.27112C46.004 2.48888 46.3596 2.81847 46.6089 3.22409C46.8618 3.6356 46.9938 4.11003 46.9897 4.59307C46.9968 5.07616 46.8677 5.55147 46.617 5.9645C46.3677 6.37002 46.0121 6.69958 45.5889 6.91748C45.1317 7.14469 44.6282 7.26294 44.1177 7.26294ZM43.1451 3.00424C42.8655 3.15586 42.6334 3.38223 42.4749 3.65808C42.3147 3.94542 42.2306 4.26896 42.2306 4.59797C42.2306 4.92698 42.3147 5.25053 42.4749 5.53787C42.6334 5.81372 42.8655 6.04009 43.1451 6.19171C43.4416 6.34507 43.7705 6.4251 44.1042 6.4251C44.438 6.4251 44.7669 6.34507 45.0633 6.19171C45.3427 6.03997 45.5744 5.81361 45.7327 5.53787C45.8931 5.25058 45.9773 4.92701 45.9773 4.59797C45.9773 4.26893 45.8931 3.94537 45.7327 3.65808C45.5744 3.38234 45.3427 3.15598 45.0633 3.00424C44.7668 2.85108 44.438 2.77115 44.1042 2.77115C43.7705 2.77115 43.4416 2.85108 43.1451 3.00424ZM49.0174 3.67191L51.9597 7.18631H52.777V1.99644H51.7963V5.51084L48.854 1.99644H48.0367V7.18713H49.0174V3.67191ZM54.2016 1.99644H55.1913V7.18713H54.2016V1.99644ZM59.1478 7.18828H58.1753L55.846 1.9976H56.9174L58.691 6.00238L60.4801 1.9976H61.4698L59.1478 7.18828ZM66.0312 6.37915H63.0243V4.94887H65.598V4.15446H63.0243V2.80672H65.9249V1.9976H62.0354V7.1891H66.032L66.0312 6.37915ZM67.1337 1.99644H68.1235V6.36983H70.9097V7.18713H67.1337V1.99644ZM74.778 3.67191L77.7203 7.18631H78.5376V1.99644H77.5569V5.51084L74.6146 1.99644H73.7973V7.18713H74.778V3.67191ZM82.4511 7.26202C81.9413 7.26202 81.4385 7.1441 80.982 6.91748V6.92075C80.555 6.70074 80.1969 6.36741 79.9469 5.95732C79.6969 5.54723 79.5647 5.07622 79.5647 4.59593C79.5647 4.11565 79.6969 3.64464 79.9469 3.23455C80.1969 2.82446 80.555 2.49113 80.982 2.27112C81.4385 2.0445 81.9413 1.92658 82.4511 1.92658C82.9608 1.92658 83.4636 2.0445 83.9202 2.27112C84.3436 2.48885 84.6992 2.81844 84.9483 3.22409C85.1983 3.63622 85.3274 4.11029 85.321 4.59226C85.3281 5.07534 85.199 5.55065 84.9483 5.96369C84.6992 6.36956 84.3436 6.69942 83.9202 6.91748C83.4636 7.1441 82.9608 7.26202 82.4511 7.26202ZM81.4887 3.00424C81.2088 3.15562 80.9767 3.38205 80.8185 3.65808C80.6581 3.94537 80.5739 4.26894 80.5739 4.59798C80.5739 4.92702 80.6581 5.25058 80.8185 5.53787C80.977 5.81372 81.209 6.04009 81.4887 6.19172C81.7851 6.34507 82.114 6.42511 82.4478 6.42511C82.7816 6.42511 83.1105 6.34507 83.4069 6.19172C83.6863 6.03997 83.918 5.81361 84.0763 5.53787C84.2367 5.25058 84.3209 4.92702 84.3209 4.59798C84.3209 4.26894 84.2367 3.94537 84.0763 3.65808C83.918 3.38234 83.6863 3.15598 83.4069 3.00424C83.1104 2.85101 82.7815 2.77105 82.4478 2.77105C82.1141 2.77105 81.7852 2.85101 81.4887 3.00424ZM0.530942 2.17952C0.510023 2.25399 0.49957 2.33101 0.499885 2.40836V23.2569C0.500575 23.3195 0.509927 23.3816 0.527673 23.4416L11.5498 12.8085L0.530942 2.17952ZM2.2171 23.1305L2.09777 23.1976L12.2078 13.4439L14.8698 16.0127L10.6051 18.4114L10.5495 18.4425H10.5454L10.4179 18.5144L10.3468 18.5537L2.2171 23.1305ZM14.9776 9.50042L10.6091 7.04851L10.5927 7.0387L10.4693 6.97005L10.4497 6.95861L1.70049 2.03518L12.211 12.1746L14.9776 9.50042ZM15.8096 9.97255C16.9106 10.597 19.5349 12.0804 19.8888 12.2659L19.888 12.2651C20.3367 12.4996 20.3874 12.9099 19.8569 13.2091L19.0176 13.6815L15.7042 15.5449L12.8674 12.8094L15.8096 9.97255Z" fill="#00E76E"/>
</svg>
