<svg width="86" height="22" viewBox="0 0 86 22" fill="none" xmlns="http://www.w3.org/2000/svg">
<path fill-rule="evenodd" clip-rule="evenodd" d="M13.6017 2.12519C13.4221 2.72291 13.1252 3.27883 12.7282 3.76044L12.7298 3.75814C12.339 4.26779 11.8387 4.68314 11.2658 4.97354C10.693 5.26393 10.0622 5.42195 9.42015 5.43592C9.34965 4.82639 9.4087 4.20883 9.59345 3.6237C9.7782 3.03858 10.0845 2.49908 10.4922 2.04054C11.3245 1.06 12.4971 0.430776 13.7743 0.279297C13.84 0.899945 13.7814 1.52747 13.6017 2.12519ZM27.1184 1.60255C27.1225 1.82706 27.0644 2.04832 26.9507 2.24196V2.24502C26.841 2.42872 26.6818 2.57785 26.4913 2.67538C26.745 2.75305 26.9685 2.90708 27.1315 3.11646C27.2936 3.33813 27.3769 3.6077 27.3681 3.88222C27.3765 4.07292 27.3362 4.26262 27.251 4.43344C27.1658 4.60425 27.0385 4.75056 26.8811 4.85856C26.4538 5.11484 25.9585 5.23478 25.4613 5.20239H23.0392V0.337517H25.322C25.7894 0.308437 26.2542 0.426246 26.6513 0.674451C26.8007 0.777632 26.9218 0.916693 27.0034 1.07886C27.085 1.24103 27.1246 1.42111 27.1184 1.60255ZM25.2247 1.04661H23.9436V2.38822H25.2247C25.4786 2.40385 25.7315 2.34475 25.9522 2.21822C26.0342 2.1647 26.1008 2.0907 26.1454 2.00353C26.19 1.91636 26.211 1.81905 26.2064 1.72124C26.2116 1.62239 26.1909 1.52389 26.1463 1.43551C26.1017 1.34713 26.0348 1.27194 25.9522 1.21737C25.7316 1.09058 25.4787 1.03122 25.2247 1.04661ZM23.9436 4.49253H25.4054V4.49329C26.1064 4.49278 26.4568 4.25872 26.4568 3.79109C26.4568 3.32347 26.1064 3.08966 25.4054 3.08966H23.9436V4.49253ZM53.3242 10.2618C53.3242 11.7298 54.2691 12.7567 56.2953 13.4933C57.7319 14.0293 58.2664 14.5784 58.2664 15.5203C58.2664 16.5855 57.4409 17.2463 56.1154 17.2463C55.2537 17.2477 54.4086 17.0091 53.6749 16.5571L53.5287 16.4629L53.0746 17.9064L53.1573 17.9623C54.0317 18.4493 55.0172 18.702 56.0181 18.6959C58.928 18.6959 59.958 16.9247 59.958 15.4085C59.958 13.8448 59.1317 12.8815 57.1032 12.0805C55.5235 11.4679 55.0173 10.9893 55.0173 10.101C55.0173 9.35362 55.6123 8.60088 56.9416 8.60088C57.6368 8.58423 58.3235 8.75623 58.9288 9.09862L59.072 9.18668L59.5491 7.77615L59.4549 7.72102C58.6955 7.32499 57.8457 7.1344 56.9899 7.16814C54.8312 7.16814 53.3234 8.44083 53.3234 10.2626L53.3242 10.2618ZM24.7798 18.5174L25.9147 15.0868H29.5949L30.7619 18.5174H32.55L28.7334 7.34502H26.8397L23.0392 18.5174H24.7798ZM27.3068 10.7389C27.46 10.2557 27.607 9.73342 27.7433 9.18207C27.8712 9.68058 28.0098 10.199 28.1882 10.7588L29.2128 13.7207H26.296L27.3068 10.7389ZM37.2426 18.6949C37.7219 18.6993 38.197 18.6049 38.6382 18.4176C39.0795 18.2302 39.4774 17.954 39.8071 17.606C40.5903 16.7091 40.9961 15.544 40.9396 14.3546C40.9785 13.2793 40.6296 12.2259 39.9564 11.3865C39.6517 11.0238 39.2708 10.7329 38.8407 10.5343C38.4107 10.3358 37.9421 10.2346 37.4685 10.2379C36.9486 10.2154 36.4313 10.3213 35.9621 10.5462C35.4929 10.7711 35.0864 11.1081 34.7783 11.5274L34.7102 10.4163H33.1618L33.171 10.558C33.217 11.2471 33.2353 12.0129 33.2353 13.1064V21.7204H34.9277V17.7017C35.2171 18.0268 35.5743 18.2844 35.9742 18.4564C36.374 18.6284 36.8067 18.7106 37.2418 18.6972L37.2426 18.6949ZM34.9277 13.8392C34.9341 13.6991 34.952 13.5598 34.9813 13.4227L34.9872 13.3904C34.9938 13.3548 35.0005 13.3191 35.0058 13.2856C35.1165 12.8249 35.3767 12.4138 35.7458 12.1166C36.1149 11.8195 36.572 11.6529 37.0458 11.643C38.5551 11.643 39.2305 13.039 39.2305 14.422C39.2305 16.2054 38.3682 17.3143 36.9822 17.3143C36.5226 17.3135 36.0765 17.1584 35.7155 16.8739C35.3545 16.5894 35.0994 16.1919 34.9912 15.7452C34.9476 15.5661 34.9273 15.382 34.9307 15.1977L34.9277 13.8392ZM47.3543 18.4171C46.9127 18.6045 46.4373 18.699 45.9577 18.6949L45.9569 18.6972C45.5221 18.7105 45.0897 18.6282 44.6901 18.4562C44.2906 18.2842 43.9336 18.0266 43.6443 17.7017V21.7204H41.952V13.1064C41.952 12.0129 41.9329 11.2517 41.8869 10.558L41.8785 10.4163H43.4261L43.4935 11.5274C43.8018 11.1081 44.2087 10.7711 44.6781 10.5462C45.1475 10.3213 45.6651 10.2154 46.1851 10.2379C46.6587 10.2347 47.127 10.336 47.5569 10.5346C47.9868 10.7331 48.3677 11.024 48.6723 11.3865C49.3453 12.2261 49.6944 13.2793 49.6563 14.3546C49.7117 15.5437 49.3063 16.7083 48.5245 17.606C48.1941 17.9537 47.7958 18.2298 47.3543 18.4171ZM43.6987 13.4196C43.6688 13.5577 43.6507 13.6981 43.6443 13.8392L43.6482 15.1969C43.6448 15.3812 43.6646 15.5651 43.7071 15.7444C43.8156 16.191 44.0707 16.5883 44.4317 16.8728C44.7926 17.1572 45.2386 17.3124 45.6981 17.3135C47.0849 17.3135 47.9464 16.2047 47.9464 14.4212C47.9464 13.0383 47.271 11.6423 45.7632 11.6423C45.2895 11.6522 44.8323 11.8187 44.4633 12.1159C44.0942 12.413 43.834 12.8241 43.7232 13.2848C43.7148 13.3285 43.7064 13.3744 43.6987 13.4196ZM61.3464 10.4217V9.01729L63.0073 8.49428V10.4194H65.0488V11.774H63.0073V15.8601C63.0073 16.8326 63.2868 17.2469 63.9431 17.2469C64.2086 17.258 64.4742 17.2272 64.7302 17.1558L64.8926 17.1068L64.973 18.4606L64.8788 18.4928C64.457 18.633 64.0146 18.7016 63.5701 18.6957C63.2675 18.7088 62.9655 18.6584 62.6835 18.5478C62.4016 18.4371 62.1459 18.2687 61.9329 18.0533C61.4837 17.4334 61.2752 16.6713 61.3464 15.9091V11.774H60.1311V10.4217H61.3464ZM69.1296 18.6951C71.0677 18.6951 73.1521 17.3474 73.1521 14.3877C73.1902 13.2905 72.8038 12.2208 72.0731 11.4012C71.708 11.0211 71.2672 10.7217 70.7792 10.5224C70.2911 10.3231 69.7668 10.2283 69.2399 10.2442C66.8721 10.2442 65.2188 12.01 65.2188 14.5363C65.2188 16.9867 66.8193 18.6982 69.1112 18.6982L69.1296 18.6951ZM66.9303 14.4834C66.9303 13.0354 67.6317 11.5735 69.1954 11.5735C70.7178 11.5735 71.4108 13.0561 71.4108 14.4337C71.4108 16.1275 70.4658 17.3581 69.1633 17.3581H69.1472C67.863 17.3581 66.9311 16.149 66.9311 14.4827L66.9303 14.4834ZM75.8728 14.2091V18.5172L74.1797 18.518L74.195 12.9961C74.195 11.9822 74.1767 11.231 74.1315 10.5618L74.1215 10.4193H75.6408L75.6906 11.6017C75.8846 11.2014 76.1854 10.8625 76.5599 10.6224C76.9343 10.3823 77.3678 10.2503 77.8125 10.2409C77.9543 10.24 78.0956 10.2575 78.2329 10.293L78.3355 10.319V11.8972L78.154 11.8796C78.0033 11.8615 77.8517 11.8518 77.6999 11.8505C77.2472 11.8705 76.8171 12.0541 76.4896 12.3674C76.1621 12.6807 75.9596 13.1022 75.9195 13.5536C75.8876 13.7706 75.872 13.9897 75.8728 14.2091ZM82.1413 10.2255C79.8876 10.2255 78.3125 12.0227 78.3125 14.5972C78.2688 15.1365 78.3414 15.6788 78.5252 16.1876C78.709 16.6965 78.9999 17.1599 79.3781 17.5468C79.7563 17.9336 80.2131 18.2349 80.7176 18.4301C81.2222 18.6254 81.7627 18.7102 82.3028 18.6787C83.2225 18.6995 84.136 18.5246 84.983 18.1657L85.0848 18.1197L84.7602 16.8608L84.6185 16.9175C83.9457 17.1887 83.224 17.3175 82.4989 17.2958C82.1665 17.3222 81.8322 17.2776 81.5184 17.1649C81.2045 17.0523 80.9182 16.8742 80.6784 16.6425C80.4386 16.4107 80.2509 16.1307 80.1276 15.8208C80.0044 15.511 79.9484 15.1785 79.9634 14.8453L85.4271 14.8622L85.4486 14.7534C85.4873 14.5207 85.5042 14.2848 85.4991 14.0489C85.4991 12.2877 84.62 10.2263 82.1413 10.2263V10.2255ZM79.9971 13.5581C80.0239 13.026 80.2465 12.5227 80.6222 12.145C80.9978 11.7672 81.4999 11.5417 82.0318 11.512C82.2603 11.5018 82.4884 11.5386 82.7022 11.62C82.9159 11.7013 83.1107 11.8257 83.2746 11.9852C83.6514 12.4228 83.8582 12.9814 83.8573 13.5589L79.9971 13.5581ZM29.8391 0.33754L27.6467 5.20241H28.5786L29.0588 4.07598H31.4946L31.9817 5.20241H32.9281L30.7296 0.33754H29.8391ZM29.3635 3.37071L30.2748 1.2442L31.1937 3.37071H29.3635ZM33.5477 0.33754H34.452V5.20241H33.5477V0.33754ZM36.2073 5.20241L37.5152 3.35387L38.8369 5.20241H40.5982L41.0783 4.07598H43.5142L44.0012 5.20241H44.9477L42.7492 0.33754H41.8586L39.7489 5.01939L38.052 2.68689L39.7558 0.33754H38.7757L37.5435 2.06892L36.2984 0.33754H35.2754L36.9876 2.72135L35.1781 5.20241H36.2073ZM42.2966 1.24114L43.2155 3.36765H41.3854L42.2966 1.24114ZM49.6463 2.06823C49.6552 2.4034 49.5617 2.73331 49.3783 3.01395L49.3744 3.01012C49.1866 3.28159 48.919 3.48791 48.6087 3.60052L49.7313 5.20249H48.7565L47.761 3.77741C47.6984 3.78342 47.6355 3.78598 47.5726 3.78507H46.473V5.20249H45.5678V0.336852H47.5726C47.9508 0.328302 48.3265 0.399533 48.6753 0.545904C48.9697 0.669038 49.2206 0.87729 49.3959 1.14396C49.5677 1.42102 49.6548 1.74231 49.6463 2.06823ZM47.5267 3.03386C47.8464 3.05639 48.1641 2.96676 48.4249 2.78039V2.78728C48.5277 2.69902 48.6089 2.58823 48.662 2.46353C48.7151 2.33883 48.7388 2.20356 48.7312 2.06823C48.739 1.93333 48.7155 1.79844 48.6623 1.67419C48.6091 1.54995 48.5279 1.43974 48.4249 1.35225C48.1631 1.16822 47.8459 1.08005 47.5267 1.10261H46.4684V3.03386H47.5267ZM56.0074 3.63275L53.3188 0.338457H52.5745V5.20333H53.4719V1.91056L56.1582 5.20333H56.9033V0.338457H56.0051L56.0074 3.63275ZM57.5252 5.20241L59.7175 0.33754H60.6081L62.8066 5.20241H61.8601L61.3731 4.07598H58.9372L58.4571 5.20241H57.5252ZM60.1548 1.2442L59.2435 3.37071H61.0737L60.1548 1.2442ZM1.47006 8.00798C-0.0928592 10.4102 0.17286 14.9289 2.70523 18.7799C3.61112 20.1583 4.82179 21.7059 6.40385 21.7204C7.05917 21.7269 7.49555 21.5326 7.96789 21.3224C8.5089 21.0816 9.09709 20.8199 10.1155 20.8145C11.1386 20.8092 11.7169 21.0739 12.2503 21.3181C12.7114 21.5291 13.1389 21.7248 13.7911 21.7174C15.3724 21.7028 16.6489 19.9883 17.5556 18.6107C18.1026 17.7894 18.5696 16.9176 18.9501 16.0071C18.1062 15.6917 17.3705 15.1408 16.8303 14.4199C16.29 13.699 15.9678 12.8383 15.9018 11.9399C15.8359 11.0414 16.029 10.1429 16.4583 9.35082C16.8875 8.55878 17.5349 7.90645 18.3237 7.47119C17.8386 6.82729 17.2174 6.29848 16.5043 5.92253C15.7912 5.54659 15.0038 5.33279 14.1985 5.29643C13.1419 5.29643 12.4178 5.56975 11.7595 5.81826C11.2107 6.02542 10.7076 6.21534 10.0956 6.21534C9.43547 6.21534 8.85058 6.00692 8.23791 5.78859C7.56414 5.5485 6.85678 5.29643 5.97885 5.29643C5.06326 5.3446 4.17346 5.61657 3.3874 6.0885C2.60133 6.56043 1.94299 7.21793 1.47006 8.00339V8.00798Z" fill="#00E76E"/>
</svg>
