<svg xmlns="http://www.w3.org/2000/svg" width="80" height="66" viewBox="0 0 80 66">
    <g fill="none" fill-rule="evenodd">
        <path fill="#00E76E" fill-rule="nonzero" d="M42.584 45.703h21.291c.799 0 1.33-.537 1.33-1.344V32.262c0-.807-.531-1.344-1.33-1.344H42.584c-.799 0-1.331.537-1.331 1.344v12.097c0 .807.532 1.344 1.33 1.344zm1.33-12.097h18.63v9.409h-18.63v-9.409z"/>
        <path fill="#00E76E" d="M6.654 28.23H17.3c.798 0 1.33-.538 1.33-1.345 0-.806-.532-1.344-1.33-1.344H6.654c-.799 0-1.331.538-1.331 1.344 0 .807.532 1.344 1.33 1.344zM22.623 28.23h10.645c.799 0 1.331-.538 1.331-1.345 0-.806-.532-1.344-1.33-1.344H22.622c-.799 0-1.331.538-1.331 1.344 0 .807.532 1.344 1.33 1.344zM6.654 33.606h17.3c.798 0 1.33-.538 1.33-1.344 0-.807-.532-1.344-1.33-1.344h-17.3c-.799 0-1.331.537-1.331 1.344 0 .806.532 1.344 1.33 1.344zM33.268 30.918h-3.992c-.798 0-1.33.537-1.33 1.344 0 .806.532 1.344 1.33 1.344h3.992c.799 0 1.331-.538 1.331-1.344 0-.807-.532-1.344-1.33-1.344z"/>
        <path fill="#03B6D1" fill-rule="nonzero" d="M78.646 14.25c-.931-1.21-2.129-1.882-3.593-2.016l-3.193-.391V5.379c0-2.957-2.396-5.377-5.323-5.377H5.323C2.395.002 0 2.422 0 5.38v43.013a5.39 5.39 0 0 0 3.813 5.153c-.067 2.72 1.97 5.08 4.704 5.331l61.48 6.99h.532c2.661 0 5.057-2.017 5.323-4.57l3.992-43.148c.133-1.344-.266-2.823-1.198-3.898zM2.662 9.411h66.536V17.476H2.662V9.411zm2.66-6.72h61.215c1.463 0 2.661 1.21 2.661 2.688v1.344H2.662V5.379c0-1.479 1.197-2.689 2.66-2.689zm-2.66 45.7V20.165h66.536v28.228c0 1.478-1.197 2.688-2.661 2.688H5.323c-1.464 0-2.661-1.21-2.661-2.688zm74.52-30.78L73.19 60.758c-.133 1.478-1.464 2.554-2.927 2.42l-61.347-6.99c-1.33-.135-2.262-1.21-2.395-2.42h60.016c2.927 0 5.322-2.42 5.322-5.376V14.385l3.061.268c.666 0 1.33.404 1.73.941.4.538.666 1.344.533 2.017z"/>
    </g>
</svg>
