<svg width="130" height="30" viewBox="0 0 130 30" fill="none" xmlns="http://www.w3.org/2000/svg">
<path d="M12.3519 0C12.5228 0.117801 12.7278 0.101632 12.9169 0.150139C15.1289 0.704497 16.9582 2.82723 16.8033 5.59901C16.6735 7.92501 14.8237 9.9923 12.4818 10.3711C9.64552 10.8285 6.97786 8.86511 6.55413 6.01016C6.12813 3.1506 8.02351 0.52895 10.8552 0.053126C10.903 0.0438867 10.9623 0.0623653 10.9896 0H12.3519Z" fill="#13B6D0"/>
<path d="M23.911 0C24.0773 0.101632 24.2732 0.092393 24.4532 0.143209C26.3668 0.66061 27.6539 1.87096 28.1939 3.79504C28.7383 5.73298 28.2873 7.49076 26.8771 8.90437C25.3895 10.3965 23.5625 10.8285 21.5782 10.1401C19.6168 9.45873 18.4436 8.01047 18.1542 5.9247C17.751 3.02356 19.7102 0.452726 22.5715 0.0485063C22.6011 0.0438867 22.6284 0.0184786 22.6558 0.00461965H23.911V0V0Z" fill="#00E76E"/>
<path d="M129.952 20.4951C129.961 20.3357 129.9 20.1671 129.998 20.0146V20.4904C129.982 20.4904 129.966 20.4904 129.952 20.4928V20.4951Z" fill="#00E76E"/>
<path d="M16.8488 21.3497V28.9999C16.8488 29.1685 16.842 29.3348 16.801 29.4988C16.6779 30.0069 16.3339 30.1409 15.8988 29.8452C15.6277 29.6605 15.4273 29.4018 15.2086 29.1639C13.2745 27.0711 11.3449 24.9738 9.41306 22.8788C6.4128 19.622 3.41254 16.3674 0.409999 13.1106C0.261922 12.9489 0.122958 12.778 0.0477803 12.5655C-0.0775154 12.2074 0.0386679 11.9441 0.389496 11.8009C0.560354 11.7316 0.740324 11.7039 0.927128 11.7039H15.024C16.0264 11.7039 16.8465 12.5447 16.8465 13.5679C16.8488 16.1618 16.8465 18.7558 16.8465 21.3497H16.8488Z" fill="#13B6D0"/>
<path d="M18.1725 21.3382V13.6603C18.1725 12.5031 18.9675 11.7016 20.1134 11.7016H33.9757C34.2035 11.7016 34.429 11.7224 34.6409 11.8078C34.9644 11.9395 35.076 12.1982 34.9689 12.5354C34.9006 12.7502 34.7662 12.9235 34.6181 13.0852C32.4129 15.4758 30.2077 17.8688 28.0048 20.2618C25.1526 23.3569 22.3004 26.4521 19.4482 29.5473C19.3115 29.6974 19.1612 29.8337 18.9789 29.9238C18.6509 30.0855 18.3935 29.9838 18.2636 29.642C18.1884 29.441 18.1748 29.2308 18.1748 29.0183V21.3405H18.1725V21.3382Z" fill="#00E76E"/>
<path d="M109.531 17.4438C109.745 17.2105 109.909 17.0072 110.096 16.8294C111.089 15.8823 112.263 15.7414 113.497 16.1711C114.693 16.5868 115.242 17.5593 115.352 18.7789C115.482 20.1948 115.379 21.6176 115.404 23.0382C115.409 23.3477 115.411 23.6549 115.404 23.9644C115.388 24.5788 114.93 25.0593 114.377 25.0454C113.784 25.0316 113.381 24.5927 113.379 23.9506C113.372 22.5208 113.397 21.091 113.356 19.6635C113.324 18.4693 112.593 17.7879 111.461 17.7995C110.392 17.8087 109.572 18.6195 109.549 19.7374C109.522 21.158 109.536 22.5785 109.529 23.9991C109.524 24.8445 108.725 25.3457 108.021 24.9507C107.686 24.7636 107.52 24.461 107.52 24.0822C107.515 21.7354 107.513 19.3887 107.52 17.0396C107.52 16.4529 107.95 16.0163 108.499 16.0094C109.076 16.0001 109.515 16.4413 109.531 17.0442C109.534 17.162 109.531 17.2821 109.531 17.4461V17.4438Z" fill="#00E76E"/>
<path d="M94.8648 25.1147C93.4911 25.1101 92.3794 24.7151 91.3656 24.0291C91.0239 23.7981 90.9419 23.2853 91.172 22.9181C91.4134 22.5346 91.9101 22.4284 92.3247 22.694C92.8509 23.0313 93.4068 23.2969 94.0173 23.4309C94.4638 23.5279 94.9149 23.5579 95.3637 23.447C95.9286 23.3061 96.2385 22.8395 96.0995 22.3614C96.0221 22.0935 95.817 21.9433 95.5892 21.8232C95.0607 21.546 94.4821 21.4098 93.9171 21.2342C93.4751 21.0979 93.0446 20.9363 92.6368 20.7145C90.9328 19.7929 91.2335 17.5916 92.3361 16.7208C93.0605 16.148 93.8943 15.9517 94.7873 15.9955C95.6667 16.0371 96.5005 16.282 97.2841 16.6931C97.5689 16.8432 97.7694 17.0627 97.7921 17.4092C97.8331 18.0905 97.2386 18.5132 96.6212 18.2361C96.3023 18.0929 95.9924 17.9335 95.6598 17.8249C95.1063 17.6424 94.5481 17.5339 93.9672 17.6886C93.8146 17.7302 93.6756 17.8018 93.5549 17.9081C93.1904 18.2314 93.1949 18.7188 93.5708 19.0283C93.8806 19.2847 94.2542 19.4095 94.6256 19.5388C95.2589 19.7605 95.9104 19.9245 96.5118 20.2318C97.136 20.5505 97.6782 20.9593 97.881 21.6754C98.1885 22.7633 97.84 24.2324 96.3592 24.8283C95.8352 25.0408 95.2862 25.1263 94.8671 25.1147H94.8648Z" fill="#00E76E"/>
<path d="M117.074 20.4119C117.074 19.6704 117.065 18.9313 117.079 18.1899C117.083 17.9635 117.042 17.8757 116.787 17.8734C116.133 17.8688 115.723 17.3075 115.924 16.7393C116.044 16.3974 116.34 16.1965 116.732 16.1872C116.958 16.1803 117.072 16.0602 117.072 15.8269C117.072 15.4573 117.069 15.0854 117.072 14.7159C117.076 14.1592 117.525 13.7227 118.083 13.7273C118.628 13.7319 119.063 14.1638 119.07 14.7159C119.074 15.1132 119.088 15.5105 119.065 15.9054C119.051 16.1526 119.138 16.1988 119.359 16.1919C119.785 16.1757 120.213 16.1849 120.639 16.1872C121.165 16.1919 121.53 16.5314 121.535 17.0142C121.541 17.4946 121.184 17.8619 120.667 17.878C120.213 17.8919 119.76 17.8873 119.307 17.878C119.136 17.8734 119.063 17.9081 119.063 18.1067C119.072 19.4117 119.063 20.7168 119.07 22.0218C119.076 22.8996 119.537 23.283 120.402 23.1537C120.947 23.0728 121.348 23.2853 121.471 23.7196C121.587 24.1261 121.364 24.5765 120.949 24.7151C120.172 24.9761 119.379 25.0246 118.584 24.8098C117.634 24.5511 117.09 23.7773 117.072 22.6594C117.06 21.911 117.069 21.1603 117.069 20.4096H117.074V20.4119Z" fill="#00E76E"/>
<path d="M79.5583 17.7903C79.8886 17.2151 80.2463 16.7 80.7771 16.3305C81.1393 16.0787 81.5334 15.9262 81.9822 16.0163C82.472 16.1133 82.7453 16.4552 82.7613 16.9657C82.775 17.4554 82.5016 17.848 82.03 17.9589C81.5584 18.0698 81.1051 18.2084 80.7178 18.5133C79.9547 19.1161 79.6312 19.9546 79.5856 20.8901C79.5355 21.911 79.5651 22.9366 79.556 23.9598C79.5514 24.5234 79.2553 24.9369 78.7837 25.0454C78.0935 25.2048 77.5308 24.7336 77.5308 23.9829V17.125C77.5308 17.0719 77.5308 17.0188 77.533 16.9657C77.5786 16.4344 77.9272 16.0718 78.4511 16.0071C78.8976 15.954 79.3236 16.2311 79.4854 16.6885C79.5423 16.8479 79.556 17.0142 79.556 17.1828V17.7903H79.5583Z" fill="#00E76E"/>
<path d="M42.621 23.9252C42.9308 23.1906 43.2292 22.4885 43.5254 21.7863C44.6736 19.0653 45.8217 16.3443 46.9699 13.6233C47.0109 13.5263 47.0519 13.427 47.1134 13.3415C47.2433 13.1591 47.4961 13.1013 47.6693 13.2214C47.8583 13.3508 47.9221 13.5263 47.8265 13.7481C47.4415 14.6351 47.0587 15.522 46.676 16.4113C45.5073 19.1138 44.341 21.8163 43.1746 24.5188C43.0812 24.7336 42.9855 24.9415 42.7258 24.99C42.4137 25.0501 42.2132 24.9323 42.0583 24.5788C41.6573 23.6618 41.261 22.7402 40.8623 21.8209C39.7164 19.1669 38.5705 16.5106 37.4224 13.859C37.3403 13.6672 37.3084 13.4894 37.4497 13.3161C37.5704 13.1683 37.7322 13.1406 37.9008 13.1822C38.1012 13.2307 38.181 13.4016 38.2539 13.5748C38.6662 14.5542 39.0808 15.5336 39.4932 16.5152C40.5069 18.9221 41.5184 21.3266 42.5299 23.7334C42.5526 23.7866 42.58 23.8397 42.6187 23.9275L42.621 23.9252Z" fill="#00E76E"/>
<path d="M56.4354 18.8782V13.1106C56.4354 13.0228 56.4354 12.9327 56.4423 12.8472C56.465 12.6463 56.5881 12.5285 56.7794 12.4985C56.9822 12.4661 57.1371 12.5493 57.2282 12.7387C57.2806 12.8449 57.2715 12.9627 57.2715 13.0759V24.6897C57.2715 24.7775 57.2715 24.8676 57.2487 24.9507C57.2009 25.1632 57.046 25.2579 56.8455 25.2533C56.6427 25.2487 56.4969 25.1424 56.4491 24.9345C56.4286 24.8422 56.4354 24.7428 56.4354 24.6458V18.8782Z" fill="#00E76E"/>
<path d="M130 19.9615C129.904 19.8252 129.929 19.6612 129.902 19.5111C129.264 15.9771 125.69 15.1386 123.451 16.7509C122.079 17.7395 121.516 19.1323 121.592 20.8069C121.637 21.8278 121.929 22.7679 122.585 23.5625C123.564 24.7498 124.858 25.2071 126.348 25.1448C127.398 25.1009 128.342 24.7428 129.132 24.0245C129.497 23.6942 129.54 23.1583 129.246 22.8141C128.961 22.4792 128.487 22.4561 128.098 22.761C127.877 22.9343 127.644 23.089 127.392 23.2091C125.763 23.9852 124.052 23.2253 123.637 21.5484C123.585 21.3382 123.603 21.2619 123.849 21.2643C125.54 21.2758 127.232 21.2712 128.923 21.2689C129.494 21.2689 129.79 21.0425 129.952 20.4928C130.009 20.338 129.929 20.1671 129.998 20.0123V19.9592L130 19.9615ZM127.708 19.913C127.048 19.9061 126.385 19.9107 125.724 19.9107H123.712C123.617 19.9107 123.485 19.9523 123.519 19.7652C123.681 18.8597 124.177 17.9843 125.123 17.6956C126.243 17.3537 127.291 17.8873 127.74 19.0168C127.824 19.2293 127.865 19.4557 127.922 19.6751C127.982 19.9061 127.886 19.9176 127.706 19.9153H127.708V19.913Z" fill="#00E76E"/>
<path d="M76.8542 16.8825C76.7744 15.7507 76.3188 14.8129 75.3939 14.1407C74.5305 13.5125 73.5395 13.3115 72.5053 13.2953C71.3822 13.2792 70.2568 13.2907 69.1314 13.2953C68.4001 13.2953 67.9946 13.7042 67.9946 14.4364V24.0453C67.9946 24.3109 68.0402 24.5534 68.2133 24.7613C68.4935 25.0985 68.94 25.221 69.3478 25.0754C69.7374 24.9345 69.9971 24.5696 70.0016 24.1146C70.0085 23.2669 70.0153 22.4215 69.9971 21.5738C69.9925 21.322 70.0723 21.2758 70.3046 21.2735C71.3047 21.2642 72.3094 21.352 73.3049 21.188C74.3369 21.0194 75.2641 20.6244 75.9748 19.816C76.7084 18.9798 76.9339 17.9774 76.8565 16.8894V16.8848L76.8542 16.8825ZM72.8265 19.3633C71.9426 19.4233 71.0496 19.3817 70.1611 19.3956C69.9789 19.3979 69.9994 19.2847 69.9994 19.1692V17.2636C69.9994 16.6469 70.0062 16.0279 69.9948 15.4111C69.9925 15.2264 70.0221 15.1455 70.234 15.1524C71.1133 15.1825 71.9927 15.1201 72.872 15.1963C73.8949 15.2864 74.6421 15.8962 74.8062 16.7901C75.0567 18.1529 74.2275 19.2662 72.8265 19.3633Z" fill="#00E76E"/>
<path d="M100.576 21.2665C101.43 21.2804 102.285 21.2712 103.139 21.2712H105.674C106.319 21.2712 106.695 20.8762 106.681 20.2248C106.677 20.0054 106.661 19.7859 106.624 19.5665C106.043 16.0717 102.631 15.231 100.43 16.5661C97.9493 18.0721 97.8537 21.2319 98.9631 23.0774C99.765 24.4102 100.993 25.05 102.501 25.1424C103.747 25.2187 104.882 24.886 105.838 24.036C106.205 23.7103 106.264 23.1883 105.973 22.828C105.695 22.4861 105.205 22.4492 104.827 22.7541C104.337 23.1467 103.795 23.387 103.173 23.4794C101.845 23.6757 100.647 22.858 100.348 21.5414C100.298 21.3174 100.348 21.2619 100.576 21.2642V21.2665ZM100.335 19.7143C100.521 18.832 100.911 18.0998 101.779 17.751C103.055 17.2382 104.339 17.9912 104.672 19.4164C104.749 19.7467 104.622 19.913 104.292 19.913H102.517C101.847 19.913 101.177 19.9084 100.508 19.9153C100.353 19.9153 100.296 19.8991 100.335 19.7143Z" fill="#00E76E"/>
<path d="M84.6248 21.2689C85.4882 21.2758 86.3516 21.2712 87.2127 21.2712C88.0738 21.2712 88.9395 21.2758 89.8006 21.2712C90.3861 21.2666 90.7597 20.8785 90.7688 20.2895C90.7734 19.9523 90.7324 19.6196 90.6595 19.294C89.9168 16.0071 86.6956 15.3257 84.6157 16.5106C82.087 17.952 81.8888 21.1788 83.0757 23.1167C83.8525 24.3871 85.0303 25.02 86.4769 25.1355C87.7708 25.2395 88.9486 24.9161 89.9373 24.0222C90.3109 23.6849 90.3497 23.1675 90.0489 22.8141C89.7665 22.4815 89.2858 22.4561 88.9008 22.7656C88.3973 23.1698 87.8301 23.4101 87.1899 23.4886C85.8664 23.6549 84.6886 22.8049 84.4289 21.4952C84.3879 21.2897 84.4448 21.2642 84.6248 21.2666V21.2689ZM84.463 19.6751C84.6544 18.8251 85.0371 18.1183 85.8686 17.7649C87.0532 17.2613 88.2834 17.8688 88.7208 19.1531C88.894 19.6589 88.7208 19.913 88.2014 19.913H86.6614C85.9916 19.913 85.3219 19.9061 84.6521 19.9176C84.4562 19.9199 84.422 19.8668 84.4653 19.6774L84.463 19.6751Z" fill="#00E76E"/>
<path d="M54.5743 19.3586C54.5538 17.9473 53.6972 16.8756 52.3463 16.5152C50.8359 16.1133 49.3779 16.3443 47.9609 16.9472C47.74 17.0396 47.6511 17.2405 47.7172 17.4392C47.7833 17.6401 48.0065 17.7487 48.232 17.6817C48.3323 17.6517 48.4257 17.6009 48.5214 17.5616C49.526 17.1412 50.5648 17.0003 51.6424 17.162C53.0297 17.3699 53.8749 18.467 53.7451 19.8737C53.7337 19.9915 53.704 20.0308 53.5879 19.9985C52.7837 19.7813 51.9659 19.6889 51.1366 19.6751C50.2823 19.6612 49.4531 19.7582 48.674 20.137C46.9586 20.9732 46.8447 23.0751 47.8698 24.1123C48.5669 24.8167 49.4372 25.1147 50.3962 25.1494C51.7335 25.1979 52.8475 24.7151 53.7519 23.6503C53.7519 23.9806 53.7359 24.3132 53.7564 24.6435C53.7747 24.9091 53.9341 25.02 54.2052 25.0062C54.4535 24.9946 54.5788 24.8676 54.5788 24.5973C54.5788 22.8511 54.5993 21.1049 54.572 19.3586H54.5743ZM53.7473 21.1187C53.7291 21.2481 53.7473 21.382 53.7473 21.516C53.7473 23.0313 52.7996 24.0892 51.2665 24.304C50.5033 24.4125 49.772 24.3571 49.1 23.939C48.4804 23.5533 48.1865 22.9897 48.2412 22.2505C48.289 21.5922 48.6375 21.1349 49.1957 20.8323C49.8973 20.4512 50.6628 20.4142 51.4328 20.4558C52.1185 20.4928 52.7974 20.5967 53.4694 20.7515C53.6881 20.8023 53.7815 20.8877 53.7496 21.1164L53.7473 21.1187Z" fill="#00E76E"/>
<path d="M59.7455 21.0818C60.7821 21.1003 61.8209 21.0887 62.8574 21.0887H65.9443C66.3361 21.0887 66.4546 20.9617 66.4454 20.5621C66.4318 19.9846 66.3315 19.4233 66.1333 18.8828C65.1424 16.1549 61.8778 15.4227 59.864 17.4946C58.7773 18.6149 58.447 20.01 58.6657 21.5206C58.9163 23.2392 59.8298 24.4957 61.502 25.0108C63.1832 25.5282 64.7027 25.1355 65.9693 23.8651C66.1698 23.6642 66.1835 23.4517 66.0217 23.2854C65.86 23.119 65.6413 23.126 65.4431 23.3061C65.2289 23.5025 65.0125 23.6896 64.7688 23.8489C62.7367 25.1817 59.9073 24.2716 59.4927 21.389C59.4631 21.1811 59.4813 21.0772 59.7455 21.0818ZM59.5337 20.0793C59.6658 18.7835 60.4996 17.4115 61.887 17.0511C63.3495 16.6723 64.6867 17.3722 65.2927 18.8228C65.4431 19.1831 65.5228 19.5596 65.5912 19.9407C65.6276 20.1509 65.598 20.2526 65.3383 20.2456C64.4156 20.2271 63.4907 20.2387 62.5681 20.2387H59.7455C59.6385 20.2387 59.5132 20.2733 59.5337 20.077V20.0793Z" fill="#00E76E"/>
</svg>
