<svg xmlns="http://www.w3.org/2000/svg" width="80" height="80" viewBox="0 0 80 80">
    <g fill="none" fill-rule="evenodd">
        <g fill="#03B6D1">
            <path d="M26.841 46c1.391 0 2.604-1.216 2.604-2.611V37.29h1.738c1.043 0 1.738-.698 1.738-1.744V18.131H12.08v17.417c0 1.046.695 1.743 1.738 1.743h1.738v6.098c0 1.395 1.213 2.611 2.604 2.611 1.39 0 2.603-1.216 2.603-2.611V37.29h3.476v6.098c0 1.395 1.213 2.61 2.603 2.61zM37.444 35.402c1.365 0 2.556-1.234 2.556-2.648V20.385c0-1.407-1.19-2.647-2.556-2.647s-2.556 1.24-2.556 2.647v12.369c0 1.414 1.19 2.648 2.556 2.648zM7.556 35.402c1.366 0 2.556-1.234 2.556-2.648V20.385c0-1.407-1.19-2.647-2.556-2.647-1.365 0-2.556 1.24-2.556 2.647v12.369c0 1.414 1.19 2.648 2.556 2.648z"/>
            <path fill-rule="nonzero" d="M30.835 4.265a.827.827 0 0 0-1.212 0L27.29 6.608l-.107.108c-1.383-.698-2.933-1.046-4.659-1.05H22.474c-1.725.004-3.275.352-4.658 1.05l-.107-.108-2.332-2.343a.827.827 0 0 0-1.212 0 .846.846 0 0 0 0 1.221l2.255 2.275a9.424 9.424 0 0 0-1.959 1.773 10.344 10.344 0 0 0-2.367 6.088l-.005.072c-.007.157-.01.315-.01.474H32.92c0-.159-.003-.317-.01-.474l-.005-.072a10.34 10.34 0 0 0-2.368-6.087A9.417 9.417 0 0 0 28.58 7.76l2.255-2.275a.846.846 0 0 0 0-1.221zm-12.68 8.842c-.719 0-1.302-.588-1.302-1.313 0-.726.583-1.314 1.302-1.314.72 0 1.303.588 1.303 1.314 0 .725-.584 1.313-1.303 1.313zm8.69 0c-.72 0-1.303-.588-1.303-1.313 0-.726.583-1.314 1.303-1.314.719 0 1.302.588 1.302 1.314 0 .725-.583 1.313-1.302 1.313z"/>
        </g>
        <g fill="#03B6D1">
            <path d="M66.74 41h.256c.206 2.514-.762 4.392-1.939 5.752-1.154 1.351-2.734 2.661-5.29 2.462-.171-2.477.798-4.216 1.973-5.573 1.09-1.265 3.087-2.39 5-2.641zM74.479 67.164v.07c-.718 2.157-1.743 4.006-2.994 5.721-1.141 1.558-2.54 3.654-5.038 3.654-2.159 0-3.592-1.376-5.804-1.414-2.34-.037-3.627 1.15-5.767 1.45h-.73c-1.57-.226-2.838-1.46-3.762-2.57-2.723-3.284-4.828-7.526-5.22-12.954v-1.595c.166-3.885 2.07-7.044 4.601-8.574 1.336-.814 3.172-1.508 5.217-1.198.876.135 1.772.432 2.556.727.744.283 1.674.785 2.555.759.597-.018 1.19-.326 1.792-.543 1.762-.631 3.49-1.354 5.767-1.015 2.736.41 4.678 1.616 5.878 3.475-2.315 1.46-4.145 3.661-3.832 7.42.278 3.413 2.28 5.41 4.78 6.587z"/>
        </g>
        <path stroke="#00E76E" stroke-linecap="round" stroke-width="3" d="M16 71.868L67.458 20.41"/>
    </g>
</svg>
