<svg xmlns="http://www.w3.org/2000/svg" width="80" height="80" viewBox="0 0 80 80">
    <g fill="none" fill-rule="nonzero">
        <path fill="#03B6D1" d="M19 11.139v57.983a6.128 6.128 0 0 0 6.148 6.138h26.74a6.128 6.128 0 0 0 6.149-6.138V11.139A6.128 6.128 0 0 0 51.889 5h-26.74A6.128 6.128 0 0 0 19 11.139zm23.481 60.72c0 .813-.666 1.479-1.481 1.479h-4.889a1.485 1.485 0 0 1-1.481-1.48v-.961c0-.814.666-1.48 1.481-1.48H41c.815 0 1.481.666 1.481 1.48v.961zm13.704-59.02v54.656h-35.26V12.84h35.26zM34.63 6.924h7.851v1.923H34.63V6.923z"/>
        <path fill="#00E76E" d="M63.4 18.378l-1.8 3.076 9.353 5.33 1.8-3.077-9.353-5.33zm-3 5.127L43 53.247l1.077 8.817 8.276-3.488 17.4-29.742-9.353-5.329z"/>
    </g>
</svg>
